<svg width="512" height="512" viewBox="0 0 512 512" fill="none" xmlns="http://www.w3.org/2000/svg">
<path d="M188.38 0H197.31C211.74 1.03 226.1 4.42 239.07 10.93C262.95 22.61 282.1 43.56 291.57 68.4C301.15 93.14 300.99 121.47 291.11 146.1C281.7 169.87 263.42 189.99 240.64 201.6C217.88 213.39 190.76 216.39 165.93 210.08C139.3 203.5 115.61 186.07 101.26 162.71C88.57 142.4 83.21 117.72 86.1 93.97C88.93 69.32 100.83 45.89 118.95 28.96C137.57 11.29 162.75 0.91 188.38 0Z" fill="#097C55"/>
<path d="M26.87 291.91C47.03 268.94 77.42 255.46 107.99 256C165 256.03 222.01 255.94 279.03 256.04C312.02 256.26 344.01 273.33 363.29 299.98C343.92 303.12 325.91 315.17 316.8 332.72C310.4 345.33 304.14 358.02 297.8 370.66C288.36 365.59 277.74 362.69 267 362.68C251.66 362.64 236.31 362.68 220.97 362.67C212.04 362.49 202.96 362.71 194.4 365.53C175.26 371.43 159.36 386.8 152.85 405.74C148.01 419.32 148.34 434.47 153.23 447.99C109.5 448.01 65.77 447.98 22.04 448.01C17.58 447.95 12.76 448.48 8.71 446.2C4.09 443.87 1 439.25 0 434.24V360.32C0.52 335.29 10.16 310.57 26.87 291.91Z" fill="#097C55"/>
<path d="M354.18 353.26C357.77 345.87 365.85 340.92 374.09 341.37C381.37 341.49 388.27 345.74 391.85 352.05C411.03 384.02 430.23 415.97 449.36 447.97C463.59 448.11 477.83 447.84 492.07 448.09C502.35 448.46 511.08 457.32 512 467.45V471.35C510.98 481.81 501.65 490.7 491.04 490.64C473.05 490.69 455.06 490.68 437.07 490.64C429.68 490.6 422.56 486.43 418.89 480.03C404.26 455.69 389.67 431.33 375.04 407C360.58 435.88 346.14 464.78 331.71 493.67C329.5 497.98 327.66 502.67 324.08 506.07C320.68 509.42 316.1 511.26 311.44 512H307.03C300.91 511.05 295.09 507.8 291.65 502.56C279.47 484.4 267.41 466.16 255.24 448C241.15 447.97 227.06 448.06 212.97 447.96C205.32 447.95 197.94 443.36 194.45 436.56C190.93 430.01 191.25 421.62 195.25 415.36C198.97 409.31 205.87 405.4 212.98 405.36C230.33 405.29 247.68 405.37 265.03 405.32C273.33 404.77 281.42 409.28 285.53 416.47C292.56 427.07 299.62 437.65 306.69 448.22C322.54 416.58 338.31 384.89 354.18 353.26Z" fill="#097C55"/>
</svg>
