<svg width="512" height="512" viewBox="0 0 512 512" fill="none" xmlns="http://www.w3.org/2000/svg">
<path d="M13.14 0H75.55C82.12 0.29 88.17 5.14 89.57 11.61C91.08 17.74 88.19 24.59 82.75 27.78C79.86 29.66 76.34 30.03 72.98 30.02C58.66 29.99 44.33 30 30 30C29.95 45.36 30.08 60.72 29.95 76.07C30.01 84.12 23.22 92.04 14.92 91.94C6.83 91.95 0.35 84.39 0 76.58V13.46C0.84 6.64 6.39 1.07 13.14 0Z" fill="#097C55"/>
<path d="M254.79 0H256.47C261.54 0.34 265.77 3.33 270.02 5.81C336.05 44.4 402.1 82.99 468.13 121.58C397.45 161.01 326.71 200.35 256 239.74C185.29 200.37 114.57 160.99 43.86 121.59C111.54 82.02 179.24 42.49 246.91 2.92C249.34 1.49 252.01 0.48 254.79 0Z" fill="#097C55"/>
<path d="M435.13 0H497.57C504.8 0.26 510.91 6.09 512 13.15V76.57C511.66 84.4 505.14 91.99 497.01 91.94C488.73 91.99 481.99 84.09 482.05 76.05C481.92 60.71 482.04 45.35 482 30C467.31 29.98 452.63 30.02 437.95 29.99C434.43 30.03 430.82 29.15 428.02 26.95C422.64 23.05 420.54 15.38 423.18 9.28C425.14 4.29 429.96 0.97 435.13 0Z" fill="#097C55"/>
<path d="M32.1 149.42C101.74 188.18 171.37 226.95 241 265.73C241 345.75 241 425.78 241 505.8C179.2 470.34 117.44 434.8 55.63 399.37C54.51 398.45 52.42 398.21 52.08 396.65C102.36 366.05 152.72 335.57 203.03 305C207.04 302.71 210.13 298.7 210.78 294.06C211.84 288.04 208.68 281.63 203.35 278.69C198.67 275.97 192.57 276.16 188.01 279.04C136.02 310.55 84.08 342.15 32.1 373.68C32.09 298.92 32.09 224.17 32.1 149.42Z" fill="#097C55"/>
<path d="M271 265.73C340.62 226.94 410.26 188.18 479.9 149.42C479.92 224.17 479.91 298.92 479.91 373.68C429.28 342.75 378.65 311.82 328.04 280.86C324.45 278.54 320.43 276.31 316 276.78C309 277.11 302.87 282.99 302.13 289.93C301.36 295.72 304.38 301.67 309.39 304.62C359.49 335.33 409.71 365.86 459.8 396.59C459.82 396.76 459.85 397.11 459.87 397.28C396.96 433.52 333.96 469.63 271 505.8C270.99 425.78 271.01 345.76 271 265.73Z" fill="#097C55"/>
<path d="M0 435.46C0.88 428.1 7.49 421.84 15.02 422.06C22.96 421.84 30.08 428.95 29.95 436.88C30.08 451.92 29.95 466.96 30 482C45.01 482.05 60.03 481.92 75.04 482.05C82.99 481.87 90.14 488.99 89.94 496.94C90.19 504.77 83.4 511.69 75.65 512H13.45C6.26 511.11 0.29 504.91 0 497.62V435.46Z" fill="#097C55"/>
<path d="M482.05 436.9C481.91 428.94 489.05 421.82 497.02 422.06C504.44 421.86 510.88 427.94 512 435.13V497.6C511.72 505.19 505.21 511.71 497.62 512H435.44C428.11 511.1 421.88 504.54 422.06 497.05C421.8 489.05 428.98 481.87 436.97 482.05C451.97 481.92 466.99 482.04 482 482C482.04 466.96 481.92 451.93 482.05 436.9Z" fill="#097C55"/>
</svg>
