<svg width="512" height="512" viewBox="0 0 512 512" fill="none" xmlns="http://www.w3.org/2000/svg">
<path d="M348.08 33.0401C357.22 25.4001 365.73 15.5601 377.93 13.0901C389.28 11.5401 400.02 18.8901 406.2 27.9201C407.49 30.1801 409.53 32.5201 409.14 35.2901C396.8 31.2101 385.02 25.0301 372.02 23.1501C367.82 22.9401 363.64 24.7001 360.75 27.7201C355.21 33.1901 354.4 41.6301 349.24 47.3601C344.35 53.0401 337.52 57.4601 329.93 58.1601C323.86 59.3801 317.69 57.4201 312.29 54.7401C304.29 50.6001 297.83 43.5001 294.32 35.2201C294.66 35.0301 295.32 34.6401 295.65 34.4401C306.03 38.4801 316.56 43.7201 327.99 43.1701C335.87 43.1201 342.36 37.8901 348.08 33.0401Z" fill="#097C55"/>
<path d="M382.05 66.8801C400.78 66.8701 419.51 66.8601 438.24 66.8901C443.65 146.8 448.98 226.71 454.38 306.62C466.98 306.64 479.58 306.6 492.18 306.64C492.21 330.15 492.17 353.66 492.2 377.17C498.8 377.2 505.4 377.17 512 377.19V499.22C341.33 499.22 170.67 499.22 0 499.22V377.15C11.62 377.14 23.24 377.17 34.87 377.14C34.89 331.45 34.85 285.75 34.89 240.06C67.64 217.08 100.37 194.07 133.14 171.13C133.18 194.1 133.14 217.07 133.16 240.04C165.94 217.09 198.65 194.06 231.43 171.12C231.46 194.09 231.43 217.06 231.44 240.04C264.22 217.09 296.94 194.06 329.72 171.11C329.67 216.22 329.83 261.34 329.64 306.46C340.96 306.84 352.29 306.52 363.62 306.62C369.78 226.71 375.87 146.79 382.05 66.8801ZM83.24 324.46C83.2 348.23 83.22 372.01 83.23 395.78C108.98 395.77 134.74 395.8 160.5 395.76C160.49 372 160.51 348.24 160.49 324.48C134.74 324.45 108.99 324.49 83.24 324.46ZM216.39 324.48C216.36 348.24 216.38 372 216.38 395.77C242.14 395.79 267.9 395.78 293.66 395.77C293.65 372.01 293.67 348.24 293.65 324.47C267.89 324.47 242.14 324.47 216.39 324.48ZM351.21 324.46C351.16 348.23 351.2 372 351.19 395.78C376.97 395.68 402.77 395.98 428.54 395.63C428.37 371.92 428.5 348.21 428.48 324.5C402.72 324.42 376.97 324.51 351.21 324.46Z" fill="#097C55"/>
</svg>
