<?xml version="1.0" standalone="no"?>
<!DOCTYPE svg PUBLIC "-//W3C//DTD SVG 20010904//EN"
 "http://www.w3.org/TR/2001/REC-SVG-20010904/DTD/svg10.dtd">
<svg version="1.0" xmlns="http://www.w3.org/2000/svg"
 width="256.000000pt" height="256.000000pt" viewBox="0 0 256.000000 256.000000"
 preserveAspectRatio="xMidYMid meet">

<g transform="translate(0.000000,256.000000) scale(0.100000,-0.100000)"
fill="#328569" stroke="none">
<path d="M1060 2085 c-370 -61 -737 -293 -962 -606 -129 -180 -129 -218 0
-399 235 -326 623 -562 1006 -610 121 -16 342 -8 448 14 377 80 722 315 939
638 91 137 91 179 -2 318 -212 316 -557 551 -935 636 -99 22 -385 27 -494 9z
m265 -210 c30 -30 31 -54 4 -89 -16 -20 -29 -26 -59 -26 -63 0 -148 -37 -197
-87 -53 -52 -80 -109 -89 -186 -7 -63 -28 -89 -69 -89 -14 0 -35 8 -46 18 -19
17 -21 27 -17 92 12 175 154 339 330 377 93 20 116 18 143 -10z m-630 -158
c-59 -128 -70 -309 -26 -447 60 -189 224 -354 415 -416 68 -23 99 -27 196 -27
97 0 128 4 196 27 191 62 355 227 415 416 44 138 33 319 -26 447 -14 31 -24
58 -22 59 6 6 149 -86 211 -136 120 -96 316 -320 316 -360 0 -27 -101 -152
-204 -255 -224 -222 -481 -348 -768 -377 -370 -37 -719 94 -1004 377 -103 103
-204 228 -204 255 0 40 196 264 316 360 62 50 205 142 211 136 2 -1 -8 -28
-22 -59z"/>
</g>
</svg>
