<svg width="55" height="55" viewBox="0 0 55 55" fill="none" xmlns="http://www.w3.org/2000/svg">
    <path fill-rule="evenodd" clip-rule="evenodd" d="M27.5 55C42.6875 55 55 42.688 55 27.5C55 12.312 42.6875 0 27.5 0C12.3125 0 0 12.312 0 27.5C0 42.688 12.3125 55 27.5 55ZM26.542 13.2764C28.1836 12.439 29.999 12.0015 31.8408 12C32.8867 12.001 33.9248 12.1426 34.9268 12.4185C35.541 12.5874 36.1426 12.8071 36.7246 13.0762C38.2559 13.7832 39.6152 14.814 40.71 16.0972C41.6475 17.1973 42.3711 18.46 42.8477 19.8208C42.9268 20.0474 42.999 20.2769 43.0645 20.5088C43.3545 21.5396 43.501 22.6025 43.501 23.668C43.501 24.2803 43.4531 24.8931 43.3564 25.501C43.0918 27.1665 42.4697 28.7554 41.5322 30.1572C40.5957 31.5596 39.3652 32.7417 37.9277 33.6226C36.4893 34.5039 34.877 35.063 33.2021 35.2612C31.5273 35.4595 29.8301 35.2925 28.2256 34.772L26.8311 36.168C26.7227 36.2764 26.5938 36.3623 26.4521 36.4209C26.3105 36.4795 26.1582 36.5093 26.0049 36.5093H23.6709V38.8433C23.6709 39.1528 23.5479 39.4497 23.3291 39.6689C23.1104 39.8877 22.8135 40.0107 22.5039 40.0107H20.1699V42.3447C20.1699 42.6543 20.0469 42.9512 19.8281 43.1699C19.7471 43.251 19.6562 43.3188 19.5576 43.3721C19.3887 43.4629 19.1982 43.5117 19.0029 43.5117H13.167C12.8574 43.5117 12.5605 43.3892 12.3418 43.1699C12.123 42.9512 12 42.6543 12 42.3447V36.5093C12 36.436 12.0068 36.3628 12.0205 36.291C12.0361 36.2129 12.0586 36.1362 12.0889 36.0625C12.1475 35.9209 12.2334 35.792 12.3418 35.6836L20.7402 27.2861C20.1719 25.5342 20.0254 23.6724 20.3145 21.8525C20.6025 20.0332 21.3174 18.3081 22.3994 16.8174C23.4814 15.3267 24.9014 14.1133 26.542 13.2764ZM33.4619 22.6943C33.8457 22.9507 34.2969 23.0874 34.7588 23.0874C35.3779 23.0874 35.9717 22.8418 36.4092 22.4038C36.8467 21.9663 37.0928 21.3726 37.0928 20.7534C37.0928 20.2915 36.9561 19.8403 36.6992 19.4565C36.4434 19.0728 36.0781 18.7734 35.6523 18.5967C35.2256 18.4199 34.7559 18.374 34.3037 18.4639C33.8506 18.5542 33.4346 18.7764 33.1084 19.1025C32.7812 19.4292 32.5596 19.8452 32.4697 20.2979C32.3789 20.7505 32.4258 21.2202 32.6025 21.6465C32.7783 22.0732 33.0781 22.4375 33.4619 22.6943Z" fill="#328569"/>
</svg>
