<svg width="55" height="55" viewBox="0 0 55 55" fill="none" xmlns="http://www.w3.org/2000/svg">
    <circle cx="27.5" cy="27.3134" r="27.29" fill="#92D3BD"/>
    <path d="M23.4766 34.1668L25.6544 31.9676L22.31 28.7068L25.6544 25.4459L23.4766 23.2468L17.8766 28.7068L23.4766 34.1668ZM30.9433 34.1668L36.5433 28.7068L30.9433 23.2468L28.7655 25.4459L32.11 28.7068L28.7655 31.9676L30.9433 34.1668ZM16.3211 42.3568C15.4655 42.3568 14.7334 42.06 14.1246 41.4665C13.5159 40.873 13.211 40.1586 13.21 39.3234V18.0901C13.21 17.2559 13.5148 16.5421 14.1246 15.9486C14.7344 15.355 15.4666 15.0578 16.3211 15.0568H22.8544C23.1914 14.1468 23.7556 13.4137 24.5468 12.8576C25.3381 12.3015 26.2258 12.0234 27.21 12.0234C28.1941 12.0234 29.0823 12.3015 29.8746 12.8576C30.6669 13.4137 31.2306 14.1468 31.5655 15.0568H38.0988C38.9544 15.0568 39.6871 15.354 40.2968 15.9486C40.9066 16.5431 41.211 17.2569 41.21 18.0901V39.3234C41.21 40.1576 40.9056 40.872 40.2968 41.4665C39.6881 42.061 38.9554 42.3578 38.0988 42.3568H16.3211ZM27.21 16.9526C27.547 16.9526 27.826 16.8449 28.0468 16.6296C28.2677 16.4142 28.3777 16.1427 28.3766 15.8151C28.3756 15.4875 28.2651 15.216 28.0453 15.0007C27.8254 14.7853 27.547 14.6776 27.21 14.6776C26.8729 14.6776 26.5945 14.7853 26.3746 15.0007C26.1548 15.216 26.0443 15.4875 26.0433 15.8151C26.0423 16.1427 26.1527 16.4147 26.3746 16.6311C26.5966 16.8474 26.875 16.9546 27.21 16.9526Z" fill="#92D3BD"/>
</svg>
