<svg width="55" height="55" viewBox="0 0 55 55" fill="none" xmlns="http://www.w3.org/2000/svg">
<path fill-rule="evenodd" clip-rule="evenodd" d="M27.29 54.58C42.3619 54.58 54.58 42.3619 54.58 27.29C54.58 12.2181 42.3619 0 27.29 0C12.2182 0 0 12.2181 0 27.29C0 42.3619 12.2182 54.58 27.29 54.58ZM12.79 15.9994C12.79 14.3293 14.1406 12.9766 15.8081 12.9766L38.772 12.9786C40.4395 12.9786 41.79 14.3314 41.79 16.0015V31.738C41.79 33.4081 40.4395 34.7608 38.772 34.7608H30.4324L31.5427 37.8645H33.5043C33.9164 37.8645 34.3115 38.0284 34.6029 38.3203C34.8942 38.6121 35.0579 39.0079 35.0579 39.4205C35.0579 39.8333 34.8942 40.229 34.6029 40.5208C34.3115 40.8126 33.9164 40.9766 33.5043 40.9766H21.0758C20.6637 40.9766 20.2686 40.8126 19.9772 40.5208C19.6859 40.229 19.5222 39.8333 19.5222 39.4205C19.5222 39.0079 19.6859 38.6121 19.9772 38.3203C20.2686 38.0284 20.6637 37.8645 21.0758 37.8645H23.0395L24.1498 34.7608H15.8081C14.1406 34.7608 12.79 33.4081 12.79 31.738V15.9994ZM26.0058 17.6819C25.5563 17.6819 25.1917 18.045 25.1917 18.4952V21.7318H21.9603C21.5128 21.7318 21.1483 22.0969 21.1483 22.545V25.1923C21.148 25.2995 21.1689 25.4056 21.2097 25.5047C21.2505 25.6037 21.3104 25.6937 21.3861 25.7695C21.4617 25.8453 21.5516 25.9053 21.6505 25.9462C21.7494 25.9871 21.8553 26.0079 21.9623 26.0077H25.1938V29.2442C25.1938 29.4599 25.2793 29.6667 25.4316 29.8193C25.5839 29.9718 25.7904 30.0575 26.0058 30.0575H28.6468C28.7536 30.0577 28.8594 30.0369 28.9582 29.9962C29.057 29.9554 29.1467 29.8956 29.2223 29.82C29.298 29.7444 29.358 29.6547 29.3989 29.5559C29.4398 29.4571 29.4609 29.3512 29.4609 29.2442V26.0077H32.6923C32.7991 26.0077 32.9049 25.9866 33.0035 25.9456C33.1022 25.9046 33.1918 25.8445 33.2672 25.7687C33.3427 25.693 33.4024 25.6031 33.4431 25.5042C33.4838 25.4053 33.5046 25.2993 33.5043 25.1923V22.545C33.5043 22.0969 33.1398 21.7318 32.6903 21.7318H29.4588V18.4952C29.4588 18.045 29.0963 17.6819 28.6468 17.6819H26.0058Z" fill="#92D3BD"/>
</svg>
