<svg width="55" height="55" viewBox="0 0 55 55" fill="none" xmlns="http://www.w3.org/2000/svg">
    <path fill-rule="evenodd" clip-rule="evenodd" d="M27.29 54.58C42.3623 54.58 54.5801 42.3618 54.5801 27.29C54.5801 12.2181 42.3623 0 27.29 0C12.2178 0 0 12.2181 0 27.29C0 42.3618 12.2178 54.58 27.29 54.58ZM26.333 8.0752C26.5498 8.02563 26.7734 8 26.999 8C27.7861 8 28.54 8.31018 29.0967 8.8623C29.6523 9.41455 29.9648 10.1633 29.9648 10.9442V25.6655C29.9648 26.4464 29.6523 27.1953 29.0967 27.7474C28.54 28.2996 27.7861 28.6097 26.999 28.6097C26.2129 28.6097 25.458 28.2996 24.9023 27.7474C24.5156 27.3641 24.2471 26.886 24.1191 26.3682C24.0625 26.1401 24.0332 25.9043 24.0332 25.6655V10.9442C24.0332 10.1633 24.3457 9.41455 24.9023 8.8623C25.2988 8.46875 25.7959 8.19812 26.333 8.0752ZM15.2275 12.3251C15.5566 12.0483 15.96 11.8723 16.3877 11.8187C16.875 11.7562 17.3691 11.8556 17.793 12.1012C18.2178 12.3469 18.5479 12.725 18.7324 13.1766C18.918 13.6283 18.9473 14.1281 18.8164 14.5979C18.6846 15.0679 18.4014 15.4814 18.0078 15.7743C16.2744 17.1261 14.873 18.8516 13.9092 20.8202C12.9463 22.7888 12.4463 24.949 12.4473 27.1377C12.4424 29.036 12.8154 30.9166 13.5459 32.6714C14.2754 34.4261 15.3467 36.0205 16.6992 37.3629C18.0508 38.7052 19.6572 39.7692 21.4248 40.4935C23.1924 41.2178 25.0869 41.5883 26.999 41.5836C28.9111 41.5883 30.8057 41.2178 32.5732 40.4935C34.3408 39.7692 35.9473 38.7052 37.2998 37.3629C38.6514 36.0205 39.7236 34.4261 40.4531 32.6714C41.1826 30.9166 41.5557 29.036 41.5508 27.1377C41.5527 24.949 41.0527 22.7886 40.0898 20.8198C39.126 18.8512 37.7246 17.1259 35.9902 15.7743C35.7617 15.593 35.5723 15.369 35.4307 15.1149C35.29 14.8607 35.2012 14.5814 35.1689 14.2931C35.1357 14.0048 35.1611 13.7129 35.2432 13.4342C35.3242 13.1555 35.46 12.8954 35.6426 12.6688C35.8252 12.4423 36.0508 12.2537 36.3066 12.1136C36.5625 11.9736 36.8438 11.8851 37.1348 11.853C37.4248 11.821 37.7188 11.8461 38 11.9269C38.1963 11.9834 38.3848 12.0667 38.5576 12.1737C38.6309 12.2194 38.7021 12.2694 38.7705 12.3236C43.1797 15.7772 46 21.1417 46 27.1377C46 37.528 37.4688 46 26.999 46C16.5303 46 8 37.528 8 27.1377C7.99707 24.2866 8.64648 21.4722 9.89844 18.9062C11.1504 16.3405 12.9727 14.0902 15.2275 12.3251Z" fill="#92D3BD"/>
</svg>
