<svg xmlns="http://www.w3.org/2000/svg" width="55" height="56" viewBox="0 0 55 56" fill="none">
    <path d="M48.2751 45.3654C51.0764 41.9977 53.0247 38.0055 53.9553 33.7263C54.8858 29.4472 54.7712 25.0071 53.6211 20.7816C52.471 16.5561 50.3192 12.6696 47.3479 9.45072C44.3766 6.23186 40.6731 3.77541 36.5506 2.28917C32.4282 0.802935 28.0082 0.330626 23.6645 0.912204C19.3207 1.49378 15.1811 3.11214 11.5957 5.63037C8.01032 8.14859 5.08469 11.4926 3.06631 15.3795C1.04793 19.2664 -0.00382821 23.5819 1.04701e-05 27.9609C0.0014835 34.3266 2.24659 40.4886 6.34137 45.3654L6.30236 45.3985C6.4389 45.5622 6.59495 45.7025 6.73539 45.8643C6.91095 46.065 7.10015 46.2541 7.28156 46.449C7.82772 47.0415 8.38949 47.6106 8.97857 48.1446C9.15802 48.3083 9.34333 48.4603 9.52473 48.6163C10.1489 49.1542 10.7907 49.6648 11.4558 50.1404C11.5416 50.1988 11.6197 50.2749 11.7055 50.3353V50.3119C16.274 53.5241 21.7239 55.2481 27.3102 55.2481C32.8965 55.2481 38.3464 53.5241 42.9149 50.3119V50.3353C43.0007 50.2749 43.0768 50.1988 43.1646 50.1404C43.8278 49.6629 44.4715 49.1542 45.0957 48.6163C45.2771 48.4603 45.4624 48.3064 45.6418 48.1446C46.2309 47.6086 46.7927 47.0415 47.3388 46.449C47.5202 46.2541 47.7075 46.065 47.885 45.8643C48.0235 45.7025 48.1815 45.5622 48.318 45.3965L48.2751 45.3654ZM27.3083 12.369C29.0443 12.369 30.7414 12.8834 32.1849 13.8471C33.6283 14.8108 34.7534 16.1805 35.4177 17.7831C36.0821 19.3857 36.2559 21.1492 35.9172 22.8505C35.5786 24.5518 34.7426 26.1145 33.515 27.3411C32.2874 28.5676 30.7234 29.4029 29.0207 29.7414C27.318 30.0798 25.5531 29.9061 23.9492 29.2423C22.3453 28.5784 20.9744 27.4543 20.0099 26.012C19.0454 24.5697 18.5306 22.8741 18.5306 21.1394C18.5306 18.8134 19.4554 16.5826 21.1015 14.9378C22.7476 13.293 24.9803 12.369 27.3083 12.369ZM11.7172 45.3654C11.751 42.8063 12.7919 40.3634 14.6145 38.5652C16.4372 36.767 18.8951 35.7582 21.4565 35.7568H33.16C35.7214 35.7582 38.1793 36.767 40.002 38.5652C41.8246 40.3634 42.8655 42.8063 42.8993 45.3654C38.6214 49.2172 33.0669 51.3489 27.3083 51.3489C21.5496 51.3489 15.9951 49.2172 11.7172 45.3654Z" fill="#92D3BD"/>
</svg>
