<svg xmlns="http://www.w3.org/2000/svg" width="55" height="55" viewBox="0 0 55 55" fill="none">
    <path d="M25.179 0.0668449C19.5121 0.626862 14.6587 2.50691 10.5119 5.747C9.23186 6.74703 7.01847 8.94709 5.97844 10.2405C0.164944 17.534 -1.54177 27.2676 1.44498 36.0412C6.33845 50.3882 21.8589 57.9884 36.2326 53.0816C41.9928 51.1216 47.4062 46.7748 50.5663 41.5613C52.2997 38.7079 53.6331 35.1878 54.1664 32.0944C55.0731 26.8542 54.4731 21.4674 52.433 16.6806C48.4996 7.42705 39.7794 1.05354 29.7791 0.106846C28.3924 -0.0131569 26.219 -0.0398254 25.179 0.0668449ZM29.6591 2.38691C39.566 3.34694 47.8862 9.97378 51.0463 19.4407C52.273 23.1075 52.633 27.7476 51.9797 31.481C50.2863 41.108 43.1261 48.9748 33.8192 51.4283C31.8325 51.9483 30.9925 52.0949 28.9524 52.2416C22.9789 52.6683 16.9387 50.8549 12.1253 47.1881C1.93833 39.4279 -0.728413 25.2275 5.9251 14.2672C7.84515 11.0938 10.8319 8.05373 13.912 6.14701C15.392 5.22699 17.6988 4.10696 19.0588 3.65361C20.3122 3.24026 20.8322 3.3336 21.1255 4.05362C21.4855 4.92031 21.1122 5.32032 19.3788 5.96034C13.9787 7.9604 9.5652 11.9338 6.97846 17.1073C4.37839 22.3208 3.84504 27.7609 5.37842 33.3744C8.20516 43.7614 18.2454 50.8282 28.9391 49.9749C39.2327 49.1482 47.3796 41.988 49.6063 31.801C49.873 30.6143 49.8996 30.0543 49.8996 27.3076C49.8996 24.5609 49.873 24.0008 49.6063 22.8141C48.0463 15.6806 43.4995 9.82711 37.126 6.7737C34.5392 5.54699 31.9258 4.86698 28.6991 4.58697C26.659 4.41363 26.3523 4.29363 26.1923 3.62694C26.0857 3.20026 26.3523 2.62691 26.779 2.41357C27.1924 2.20024 27.779 2.20024 29.6591 2.38691ZM39.326 12.8539C40.0727 13.2005 40.9661 13.9872 41.4061 14.6806C42.1261 15.8139 42.1261 15.8273 42.0861 27.6676L42.0461 38.5746L41.6061 39.4679C41.0994 40.4946 40.3794 41.2013 39.326 41.6947L38.5793 42.0413L27.659 42.0813C15.832 42.1213 15.8187 42.1213 14.6853 41.4013C13.992 40.9613 13.2053 40.0679 12.8586 39.3213C12.5786 38.7079 12.5786 38.6279 12.5386 27.5876C12.4986 15.2939 12.4719 15.7073 13.352 14.4272C13.592 14.0806 14.0853 13.5872 14.432 13.3472C15.6854 12.4939 15.1787 12.5205 27.5124 12.5472C38.646 12.5739 38.7127 12.5739 39.326 12.8539Z" fill="#92D3BD"/>
    <path d="M16.1793 14.9599C15.686 15.1865 15.1126 15.7865 14.926 16.2799C14.846 16.4932 14.7793 17.7066 14.7793 19.12V21.5734H27.313H39.8466V19.1333C39.8466 17.0532 39.8066 16.6266 39.5933 16.1732C39.3133 15.5599 38.8733 15.1199 38.3399 14.9199C37.7266 14.6798 16.6993 14.7332 16.1793 14.9599ZM20.0594 17.3599C20.3394 17.5999 20.4328 17.7866 20.4328 18.1733C20.4328 18.5599 20.3394 18.7466 20.0594 18.9866C19.7528 19.2666 19.5528 19.3066 18.7394 19.3066C17.7394 19.2933 17.4727 19.1866 17.206 18.68C16.9527 18.2133 17.0194 17.8399 17.4327 17.4266C17.7927 17.0666 17.8994 17.0399 18.7661 17.0399C19.5528 17.0399 19.7528 17.0932 20.0594 17.3599ZM25.5663 17.2399C26.2196 17.5733 26.3263 18.4399 25.7796 18.9733C25.4996 19.2666 25.3396 19.3066 24.4462 19.3066C23.5529 19.3066 23.3929 19.2666 23.1129 18.9733C22.5528 18.4266 22.6862 17.5733 23.3795 17.1999C23.7662 16.9866 25.1262 17.0132 25.5663 17.2399Z" fill="#92D3BD"/>
    <path d="M14.7793 30.8943C14.7793 35.5744 14.8326 38.0811 14.926 38.3345C15.126 38.8678 15.566 39.3078 16.1793 39.5878C16.686 39.8279 17.286 39.8412 27.1796 39.8412C34.3798 39.8412 37.8066 39.7879 38.1799 39.6945C38.8466 39.5078 39.5133 38.8412 39.7 38.1745C39.7933 37.8145 39.8466 35.3344 39.8466 30.7343V23.8408H27.313H14.7793V30.8943ZM19.7794 26.2675C20.4728 26.5875 20.5128 26.8142 20.5128 31.241V35.3211L21.6195 35.2811L22.7128 35.2411L22.7795 33.2943C22.8329 31.6276 22.8862 31.2943 23.0995 31.0676C23.3929 30.7343 23.7795 30.6543 24.2862 30.8143C24.9129 31.0143 25.0462 31.481 25.0462 33.5077V35.3077H26.1796H27.313V31.641V27.9609L27.6463 27.6409C28.0063 27.2808 28.6997 27.2008 29.0597 27.4809C29.5397 27.8542 29.5797 28.1609 29.5797 31.761V35.3077H30.7131H31.8464V32.9077C31.8464 31.441 31.8998 30.4009 31.9931 30.2009C32.2464 29.6409 33.1398 29.3876 33.5931 29.7476C34.0465 30.0943 34.1132 30.4676 34.1132 32.8943V35.3077H34.9132C35.5932 35.3077 35.7799 35.3611 36.0465 35.6411C36.4732 36.0544 36.4732 36.6411 36.0599 37.1344L35.7399 37.5078H27.3396H18.9394L18.5927 37.1878L18.2461 36.8678V31.8543C18.2594 26.4942 18.2461 26.5208 18.9261 26.2542C19.3528 26.0808 19.3794 26.0808 19.7794 26.2675Z" fill="#92D3BD"/>
</svg>
