<svg width="55" height="55" viewBox="0 0 55 55" fill="none" xmlns="http://www.w3.org/2000/svg">
    <path fill-rule="evenodd" clip-rule="evenodd" d="M54.5775 27.2887C54.5775 42.3599 42.3599 54.5775 27.2887 54.5775C12.2176 54.5775 0 42.3599 0 27.2887C0 12.2176 12.2176 0 27.2887 0C42.3599 0 54.5775 12.2176 54.5775 27.2887ZM20.3266 16.7075C20.3266 14.8612 21.0601 13.0905 22.3656 11.785C23.6711 10.4795 25.4417 9.74609 27.288 9.74609C29.1343 9.74609 30.9049 10.4795 32.2104 11.785C33.5159 13.0905 34.2494 14.8612 34.2494 16.7075C34.2494 18.5537 33.5159 20.3244 32.2104 21.6299C30.9049 22.9354 29.1343 23.6688 27.288 23.6688C25.4417 23.6688 23.6711 22.9354 22.3656 21.6299C21.0601 20.3244 20.3266 18.5537 20.3266 16.7075ZM34.2494 22.2765C34.2494 20.7995 34.8361 19.383 35.8805 18.3386C36.9249 17.2942 38.3414 16.7075 39.8185 16.7075C41.2955 16.7075 42.712 17.2942 43.7564 18.3386C44.8008 19.383 45.3875 20.7995 45.3875 22.2765C45.3875 23.7536 44.8008 25.1701 43.7564 26.2145C42.712 27.2589 41.2955 27.8456 39.8185 27.8456C38.3414 27.8456 36.9249 27.2589 35.8805 26.2145C34.8361 25.1701 34.2494 23.7536 34.2494 22.2765ZM9.18848 22.2765C9.18848 20.7995 9.77522 19.383 10.8196 18.3386C11.864 17.2942 13.2805 16.7075 14.7576 16.7075C16.2346 16.7075 17.6511 17.2942 18.6955 18.3386C19.7399 19.383 20.3266 20.7995 20.3266 22.2765C20.3266 23.7536 19.7399 25.1701 18.6955 26.2145C17.6511 27.2589 16.2346 27.8456 14.7576 27.8456C13.2805 27.8456 11.864 27.2589 10.8196 26.2145C9.77522 25.1701 9.18848 23.7536 9.18848 22.2765ZM16.7253 32.2396C17.8576 30.465 19.419 29.0045 21.2653 27.9931C23.1115 26.9817 25.1829 26.4522 27.288 26.4534C29.0512 26.4517 30.7949 26.8225 32.4049 27.5415C34.0149 28.2604 35.4548 29.3113 36.6306 30.6253C37.8063 31.9393 38.6912 33.4868 39.2275 35.1665C39.7637 36.8462 39.9392 38.6202 39.7423 40.3724C39.7183 40.59 39.6432 40.799 39.5232 40.9822C39.4032 41.1654 39.2417 41.3177 39.0518 41.4268C35.4719 43.4809 31.4153 44.5589 27.288 44.5529C23.1606 44.5594 19.1039 43.4814 15.5242 41.4268C15.3343 41.3177 15.1728 41.1654 15.0528 40.9822C14.9328 40.799 14.8577 40.59 14.8337 40.3724C14.5219 37.5259 15.1891 34.6581 16.7253 32.2415V32.2396ZM12.0184 40.1692C11.7627 36.8116 12.6157 33.4629 14.4465 30.6368C13.5125 30.6787 12.5964 30.9083 11.7531 31.3119C10.9097 31.7155 10.1563 32.2849 9.53778 32.986C8.91927 33.6872 8.44834 34.5058 8.15309 35.3929C7.85784 36.28 7.74432 37.2175 7.81931 38.1495L7.83787 38.3741C7.85351 38.5756 7.92725 38.7683 8.05014 38.9287C8.17304 39.0892 8.33982 39.2106 8.53029 39.2782L8.74377 39.3524C9.80729 39.7267 10.9037 40.0002 12.0184 40.1692ZM40.1311 30.6368C41.962 33.4629 42.815 36.8116 42.5593 40.1692C43.6879 39.9984 44.7813 39.7218 45.8339 39.3506L46.0474 39.2763C46.2376 39.2088 46.4042 39.0877 46.527 38.9276C46.6499 38.7675 46.7238 38.5753 46.7398 38.3741L46.7584 38.1495C46.8333 37.2175 46.7198 36.28 46.4246 35.3929C46.1293 34.5058 45.6584 33.6872 45.0399 32.986C44.4214 32.2849 43.6679 31.7155 42.8246 31.3119C41.9812 30.9083 41.0652 30.6787 40.1311 30.6368Z" fill="#328569"/>
</svg>
