<svg width="39" height="25" viewBox="0 0 39 25" fill="none" xmlns="http://www.w3.org/2000/svg">
    <path d="M26.333 10.7915C29.1688 10.7915 31.4409 8.50231 31.4409 5.66647C31.4409 2.83064 29.1688 0.541473 26.333 0.541473C23.4972 0.541473 21.208 2.83064 21.208 5.66647C21.208 8.50231 23.4972 10.7915 26.333 10.7915ZM12.6663 10.7915C15.5022 10.7915 17.7743 8.50231 17.7743 5.66647C17.7743 2.83064 15.5022 0.541473 12.6663 0.541473C9.8305 0.541473 7.54134 2.83064 7.54134 5.66647C7.54134 8.50231 9.8305 10.7915 12.6663 10.7915ZM12.6663 14.2081C8.68592 14.2081 0.708008 16.2069 0.708008 20.1873V24.4581H24.6247V20.1873C24.6247 16.2069 16.6468 14.2081 12.6663 14.2081ZM26.333 14.2081C25.8376 14.2081 25.2738 14.2423 24.6759 14.2936C26.6576 15.7286 28.0413 17.659 28.0413 20.1873V24.4581H38.2913V20.1873C38.2913 16.2069 30.3134 14.2081 26.333 14.2081Z" fill="black"/>
</svg>